<?xml version="1.0" encoding="UTF-8"?>
<!DOCTYPE svg PUBLIC "-//W3C//DTD SVG 1.1//EN" "http://www.w3.org/Graphics/SVG/1.1/DTD/svg11.dtd">
<!-- Creator: CorelDRAW X7 -->
<svg xmlns="http://www.w3.org/2000/svg" xml:space="preserve" width="4.33333in" height="0.616661in" version="1.1" style="shape-rendering:geometricPrecision; text-rendering:geometricPrecision; image-rendering:optimizeQuality; fill-rule:evenodd; clip-rule:evenodd"
viewBox="0 0 4333 617"
 xmlns:xlink="http://www.w3.org/1999/xlink">
 <defs>
  <style type="text/css">
   <![CDATA[
    .fil4 {fill:none}
    .fil2 {fill:#1BB1DC}
    .fil0 {fill:black;fill-rule:nonzero}
    .fil1 {fill:black;fill-rule:nonzero}
    .fil3 {fill:white;fill-rule:nonzero}
   ]]>
  </style>
    <clipPath id="id0">
     <path d="M2316 97l586 0 0 533 -586 0 0 -533z"/>
    </clipPath>
 </defs>
 <g id="Layer_x0020_1">
  <metadata id="CorelCorpID_0Corel-Layer"/>
  <path class="fil0" d="M338 403c0,17 -3,34 -10,50 -7,16 -17,31 -30,44 -13,13 -29,23 -48,31 -19,8 -41,12 -65,12 -26,0 -48,-3 -69,-9 -20,-6 -39,-14 -56,-24l22 -53c6,5 14,9 23,14 9,5 19,10 29,14 11,4 21,7 32,10 11,3 22,5 32,5 14,0 26,-2 37,-4 10,-3 18,-6 25,-10 3,-2 6,-5 10,-8 3,-3 6,-7 8,-12 3,-5 5,-11 6,-18 2,-8 2,-17 2,-28 0,-14 -3,-25 -9,-35 -6,-9 -14,-18 -24,-24 -10,-7 -21,-13 -34,-18 -12,-5 -25,-11 -38,-16 -13,-5 -26,-11 -39,-18 -12,-7 -24,-15 -34,-25 -10,-10 -18,-21 -24,-35 -6,-14 -9,-31 -9,-51 0,-14 3,-28 10,-42 6,-14 16,-26 28,-38 12,-11 27,-20 45,-27 18,-8 38,-11 60,-11 19,0 36,1 52,3 15,2 31,5 47,8l-14 53c-16,-6 -34,-11 -52,-15 -18,-5 -35,-7 -51,-7 -12,0 -23,1 -32,3 -10,2 -17,4 -22,8 -5,4 -10,10 -14,18 -3,8 -5,19 -5,35 0,13 3,24 9,32 6,9 14,17 24,23 10,7 21,12 34,18 12,5 25,10 38,15 14,6 26,12 39,19 13,7 24,15 34,25 10,10 18,22 24,37 6,14 9,31 9,51z"/>
  <polygon id="1" class="fil0" points="514,534 514,117 375,115 379,82 714,82 710,114 575,117 575,534 "/>
  <polygon id="2" class="fil0" points="1019,534 777,534 777,82 1009,82 1004,115 839,117 839,277 995,279 991,308 839,311 839,498 1023,502 "/>
  <path id="3" class="fil0" d="M1190 330l13 -2c15,-2 30,-6 45,-10 14,-4 26,-11 37,-19 11,-9 19,-20 25,-35 7,-14 10,-33 10,-56 0,-17 -3,-31 -8,-44 -5,-12 -13,-22 -22,-30 -9,-8 -21,-14 -34,-18 -14,-4 -29,-6 -45,-6 -8,0 -16,0 -22,1 -6,0 -14,1 -23,2l0 421 -61 0 0 -450c18,-1 39,-2 61,-3 23,-1 44,-2 66,-2 26,0 49,3 68,9 20,6 36,14 48,25 13,11 22,24 29,39 6,16 9,33 9,53 0,20 -4,39 -11,57 -8,17 -19,33 -35,46 -15,12 -34,23 -58,30 -24,8 -52,11 -85,11l-4 0 -3 -19z"/>
  <path id="4" class="fil0" d="M1815 375c0,22 -4,43 -12,63 -8,20 -19,38 -35,53 -16,15 -35,27 -58,36 -24,9 -51,13 -81,13 -25,0 -48,-3 -68,-9 -21,-5 -38,-14 -53,-27 -14,-12 -25,-29 -33,-49 -8,-20 -12,-45 -12,-74l0 -299 60 0 0 307c0,23 2,42 7,56 5,15 12,27 21,35 10,9 21,15 35,19 14,3 30,5 48,5 22,0 42,-2 60,-7 17,-5 30,-12 39,-21 8,-8 14,-20 18,-36 4,-15 6,-33 6,-53l0 -305 58 0 0 293z"/>
  <path id="5" class="fil0" d="M2012 330l12 -2c16,-2 31,-6 45,-10 15,-4 27,-11 38,-19 10,-9 19,-20 25,-35 6,-14 10,-33 10,-56 0,-17 -3,-31 -8,-44 -6,-12 -13,-22 -22,-30 -10,-8 -21,-14 -35,-18 -13,-4 -28,-6 -44,-6 -9,0 -16,0 -22,1 -6,0 -14,1 -23,2l0 421 -61 0 0 -450c18,-1 39,-2 61,-3 22,-1 44,-2 66,-2 26,0 49,3 68,9 19,6 35,14 48,25 13,11 22,24 28,39 6,16 9,33 9,53 0,20 -3,39 -11,57 -7,17 -18,33 -34,46 -15,12 -35,23 -59,30 -23,8 -51,11 -84,11l-4 0 -3 -19z"/>
  <polygon class="fil1" points="3325,532 3325,323 3076,323 3076,532 3015,532 3015,81 3076,81 3076,289 3325,289 3325,81 3386,81 3386,532 "/>
  <path id="1" class="fil1" d="M3848 373c0,23 -4,44 -12,64 -8,20 -20,38 -36,53 -15,15 -35,26 -58,35 -23,9 -50,14 -81,14 -25,0 -48,-3 -68,-9 -20,-5 -38,-14 -52,-27 -15,-12 -26,-29 -34,-49 -7,-20 -11,-45 -11,-75l0 -298 59 0 0 307c0,22 3,41 8,56 5,14 12,26 21,35 9,9 21,15 34,18 14,4 30,5 49,5 22,0 42,-2 59,-6 17,-5 31,-12 40,-21 8,-9 14,-21 17,-36 4,-15 6,-33 6,-53l0 -305 59 0 0 292z"/>
  <path id="2" class="fil1" d="M4252 410c0,20 -3,38 -9,53 -6,16 -16,29 -29,40 -12,11 -29,19 -49,25 -20,6 -45,9 -73,9 -9,0 -20,0 -31,-1 -12,0 -24,0 -35,-1 -12,-1 -24,-1 -36,-2 -11,-1 -21,-2 -31,-3l0 -446c18,-2 37,-4 56,-5 20,0 40,-1 60,-1 24,0 46,2 65,6 19,4 35,11 49,19 13,9 24,20 31,34 7,13 11,29 11,48 0,15 -3,29 -7,41 -5,11 -12,22 -20,30 -8,9 -17,16 -28,21 -10,5 -21,10 -32,12l0 2c18,3 34,9 48,16 13,8 24,17 33,27 9,10 16,22 20,35 4,13 7,26 7,41zm-84 -218c0,-14 -3,-27 -7,-37 -5,-10 -11,-19 -20,-25 -8,-7 -18,-12 -30,-15 -13,-3 -26,-4 -41,-4 -7,0 -13,0 -18,0 -4,0 -8,0 -12,1 -4,0 -7,0 -10,0 -3,1 -6,1 -9,1l0 164 59 0c12,0 23,-1 32,-4 10,-2 19,-5 26,-8 3,-2 6,-5 10,-8 3,-3 7,-8 9,-14 3,-5 6,-12 8,-21 2,-8 3,-18 3,-30zm20 216c0,-18 -3,-33 -9,-46 -6,-12 -15,-23 -25,-30 -10,-8 -22,-14 -35,-17 -14,-4 -28,-6 -43,-6l-55 0 0 190c6,1 15,2 25,3 11,1 23,1 36,1 6,0 13,0 20,0 7,-1 14,-1 21,-3 6,-1 12,-2 18,-3 5,-2 10,-3 13,-6 4,-2 8,-4 12,-8 4,-3 7,-8 11,-15 3,-6 5,-14 8,-24 2,-10 3,-22 3,-36z"/>
  <g id="_825170208">
   <g style="clip-path:url(#id0)">
    <image x="2316" y="97" width="586" height="533" xlink:href="Stepup IT Hub Website Logo 1_Images\Stepup IT Hub Website Logo 1_ImgID1.png"/>
   </g>
  </g>
  <rect class="fil2" x="2342" y="77" width="517" height="463" rx="80" ry="58"/>
  <path class="fil3" d="M2483 408l0 -199c15,0 29,-1 41,-3l0 3c-7,2 -13,6 -18,13 -5,6 -8,21 -8,43l0 90c0,20 3,33 8,40 5,6 12,11 18,12l0 4c-12,-2 -25,-3 -41,-3zm-15 -199l0 199c-9,0 -23,1 -41,3l0 -4c9,-2 16,-8 20,-16 4,-9 6,-24 6,-46l0 -85c0,-16 -2,-28 -6,-36 -4,-7 -11,-12 -20,-15l0 -3c15,1 29,2 41,3z"/>
  <path id="1" class="fil3" d="M2675 408l-5 0 0 -199 68 0c13,0 25,-1 37,-3 0,3 0,7 0,13 -1,6 -1,13 -1,22 0,6 0,11 -1,17l-4 0c-1,-10 -3,-19 -8,-26 -5,-7 -16,-10 -32,-10l-43 0 0 136c0,15 2,27 6,35 5,8 11,12 21,14l0 4c-23,-2 -35,-3 -38,-3zm-82 -199l63 0 0 199 -6 0c-8,0 -21,1 -37,3l0 -4c11,-2 18,-8 22,-16 4,-8 5,-21 5,-40l0 -129 -48 0c-12,0 -21,2 -26,7 -5,5 -9,15 -13,29l-4 0c0,-2 0,-3 0,-5 0,-3 0,-6 0,-10 2,-13 3,-26 3,-37 6,1 15,2 25,2l16 1z"/>
  <rect class="fil4" x="-333" width="5000" height="617"/>
 </g>
</svg>
